<?xml version="1.0" encoding="UTF-8"?><svg id="Adino_Logo" xmlns="http://www.w3.org/2000/svg" viewBox="0 0 162 66"><rect width="162" height="66" style="fill:#761bab;"/><path d="M37.04721,47.27085l-2.05657-5.7502h-10.8707l-2.05657,5.7502h-6.75756l11.58414-28.5417h5.33069l11.58414,28.5417h-6.75756ZM29.53435,26.20058l-3.6099,10.15727h7.21981l-3.6099-10.15727Z" style="fill:#fff;"/><path d="M55.01387,18.72915c8.05883,0,14.18669,6.21202,14.18669,14.27085s-6.08599,14.27085-14.18669,14.27085h-8.47922v-28.5417h8.47922ZM54.63622,41.47835c4.82658,0,8.14256-3.7355,8.14256-8.47835s-3.27412-8.43648-8.14256-8.43648h-1.88912v16.91483h1.88912Z" style="fill:#fff;"/><path d="M73.18985,47.27085v-28.5417h6.29531v28.5417h-6.29531Z" style="fill:#fff;"/><path d="M100.64047,47.27085l-9.82236-17.79659v17.79659h-6.29531v-28.5417h6.29531l9.82236,17.79659v-17.79659h6.29531v28.5417h-6.29531Z" style="fill:#fff;"/><path d="M125.61055,47.65069c-7.86171,0-14.63718-6.77504-14.63718-14.63718s6.77548-14.63718,14.63718-14.63718c7.86258,0,14.63718,6.77504,14.63718,14.63718s-6.77461,14.63718-14.63718,14.63718ZM125.61055,24.60781c-4.39098,0-8.36398,3.973-8.36398,8.36398s3.973,8.40569,8.36398,8.40569,8.36398-4.01471,8.36398-8.40569-3.973-8.36398-8.36398-8.36398Z" style="fill:#fff;"/><circle cx="143.55509" cy="15.27405" r="3.13911" style="fill:#fff;"/></svg>